<?xml version="1.0" encoding="UTF-8"?>
<!--Generator: Apple Native CoreSVG 175-->
<!DOCTYPE svg
PUBLIC "-//W3C//DTD SVG 1.1//EN"
       "http://www.w3.org/Graphics/SVG/1.1/DTD/svg11.dtd">
<svg version="1.1" xmlns="http://www.w3.org/2000/svg" xmlns:xlink="http://www.w3.org/1999/xlink" width="3300" height="2200">
 <!--glyph: "uni10042E.medium", point size: 100.0, font version: "17.3d3e1", template writer version: "65.1"-->
 <g id="Notes">
  <rect height="2200" id="artboard" style="fill:white;opacity:1" width="3300" x="0" y="0"/>
  <line style="fill:none;stroke:black;opacity:1;stroke-width:0.5;" x1="263" x2="3036" y1="292" y2="292"/>
  <text style="stroke:none;fill:black;font-family:sans-serif;font-size:13;font-weight:bold;" transform="matrix(1 0 0 1 263 322)">Weight/Scale Variations</text>
  <text style="stroke:none;fill:black;font-family:sans-serif;font-size:13;text-anchor:middle;" transform="matrix(1 0 0 1 559.711 322)">Ultralight</text>
  <text style="stroke:none;fill:black;font-family:sans-serif;font-size:13;text-anchor:middle;" transform="matrix(1 0 0 1 856.422 322)">Thin</text>
  <text style="stroke:none;fill:black;font-family:sans-serif;font-size:13;text-anchor:middle;" transform="matrix(1 0 0 1 1153.13 322)">Light</text>
  <text style="stroke:none;fill:black;font-family:sans-serif;font-size:13;text-anchor:middle;" transform="matrix(1 0 0 1 1449.84 322)">Regular</text>
  <text style="stroke:none;fill:black;font-family:sans-serif;font-size:13;text-anchor:middle;" transform="matrix(1 0 0 1 1746.56 322)">Medium</text>
  <text style="stroke:none;fill:black;font-family:sans-serif;font-size:13;text-anchor:middle;" transform="matrix(1 0 0 1 2043.27 322)">Semibold</text>
  <text style="stroke:none;fill:black;font-family:sans-serif;font-size:13;text-anchor:middle;" transform="matrix(1 0 0 1 2339.98 322)">Bold</text>
  <text style="stroke:none;fill:black;font-family:sans-serif;font-size:13;text-anchor:middle;" transform="matrix(1 0 0 1 2636.69 322)">Heavy</text>
  <text style="stroke:none;fill:black;font-family:sans-serif;font-size:13;text-anchor:middle;" transform="matrix(1 0 0 1 2933.4 322)">Black</text>
  <line style="fill:none;stroke:black;opacity:1;stroke-width:0.5;" x1="263" x2="3036" y1="1903" y2="1903"/>
  <g transform="matrix(1 0 0 1 263 1933)">
   <path d="M9.24805 0.830078Q10.8691 0.830078 12.2949 0.214844Q13.7207-0.400391 14.8096-1.49414Q15.8984-2.58789 16.5186-4.01367Q17.1387-5.43945 17.1387-7.05078Q17.1387-8.66211 16.5186-10.0879Q15.8984-11.5137 14.8047-12.6074Q13.7109-13.7012 12.2852-14.3164Q10.8594-14.9316 9.23828-14.9316Q7.62695-14.9316 6.20117-14.3164Q4.77539-13.7012 3.69141-12.6074Q2.60742-11.5137 1.9873-10.0879Q1.36719-8.66211 1.36719-7.05078Q1.36719-5.43945 1.9873-4.01367Q2.60742-2.58789 3.69629-1.49414Q4.78516-0.400391 6.21094 0.214844Q7.63672 0.830078 9.24805 0.830078ZM9.24805-0.654297Q7.91992-0.654297 6.7627-1.14746Q5.60547-1.64062 4.73145-2.51953Q3.85742-3.39844 3.36426-4.56055Q2.87109-5.72266 2.87109-7.05078Q2.87109-8.37891 3.35938-9.54102Q3.84766-10.7031 4.72168-11.582Q5.5957-12.4609 6.75293-12.9541Q7.91016-13.4473 9.23828-13.4473Q10.5762-13.4473 11.7334-12.9541Q12.8906-12.4609 13.7695-11.582Q14.6484-10.7031 15.1465-9.54102Q15.6445-8.37891 15.6445-7.05078Q15.6445-5.72266 15.1514-4.56055Q14.6582-3.39844 13.7842-2.51953Q12.9102-1.64062 11.748-1.14746Q10.5859-0.654297 9.24805-0.654297ZM5.6543-7.05078Q5.6543-6.72852 5.85938-6.52832Q6.06445-6.32812 6.40625-6.32812L8.51562-6.32812L8.51562-4.20898Q8.51562-3.88672 8.71094-3.67676Q8.90625-3.4668 9.23828-3.4668Q9.56055-3.4668 9.77051-3.67676Q9.98047-3.88672 9.98047-4.20898L9.98047-6.32812L12.0898-6.32812Q12.4219-6.32812 12.627-6.52832Q12.832-6.72852 12.832-7.05078Q12.832-7.38281 12.627-7.58789Q12.4219-7.79297 12.0898-7.79297L9.98047-7.79297L9.98047-9.90234Q9.98047-10.2344 9.77051-10.4443Q9.56055-10.6543 9.23828-10.6543Q8.90625-10.6543 8.71094-10.4443Q8.51562-10.2344 8.51562-9.90234L8.51562-7.79297L6.40625-7.79297Q6.06445-7.79297 5.85938-7.58789Q5.6543-7.38281 5.6543-7.05078Z"/>
  </g>
  <g transform="matrix(1 0 0 1 281.867 1933)">
   <path d="M11.709 2.91016Q13.75 2.91016 15.5518 2.12891Q17.3535 1.34766 18.7305-0.0292969Q20.1074-1.40625 20.8887-3.20801Q21.6699-5.00977 21.6699-7.05078Q21.6699-9.0918 20.8887-10.8936Q20.1074-12.6953 18.7305-14.0723Q17.3535-15.4492 15.5469-16.2305Q13.7402-17.0117 11.6992-17.0117Q9.6582-17.0117 7.85645-16.2305Q6.05469-15.4492 4.68262-14.0723Q3.31055-12.6953 2.5293-10.8936Q1.74805-9.0918 1.74805-7.05078Q1.74805-5.00977 2.5293-3.20801Q3.31055-1.40625 4.6875-0.0292969Q6.06445 1.34766 7.86621 2.12891Q9.66797 2.91016 11.709 2.91016ZM11.709 1.25Q9.98047 1.25 8.47656 0.605469Q6.97266-0.0390625 5.83496-1.17676Q4.69727-2.31445 4.05762-3.81836Q3.41797-5.32227 3.41797-7.05078Q3.41797-8.7793 4.05762-10.2832Q4.69727-11.7871 5.83008-12.9297Q6.96289-14.0723 8.4668-14.7119Q9.9707-15.3516 11.6992-15.3516Q13.4277-15.3516 14.9316-14.7119Q16.4355-14.0723 17.5781-12.9297Q18.7207-11.7871 19.3652-10.2832Q20.0098-8.7793 20.0098-7.05078Q20.0098-5.32227 19.3701-3.81836Q18.7305-2.31445 17.5928-1.17676Q16.4551-0.0390625 14.9463 0.605469Q13.4375 1.25 11.709 1.25ZM7.17773-7.05078Q7.17773-6.69922 7.41211-6.47461Q7.64648-6.25 8.01758-6.25L10.8887-6.25L10.8887-3.36914Q10.8887-2.99805 11.1133-2.76855Q11.3379-2.53906 11.6895-2.53906Q12.0605-2.53906 12.29-2.76855Q12.5195-2.99805 12.5195-3.36914L12.5195-6.25L15.4004-6.25Q15.7715-6.25 16.001-6.47461Q16.2305-6.69922 16.2305-7.05078Q16.2305-7.42188 16.001-7.65137Q15.7715-7.88086 15.4004-7.88086L12.5195-7.88086L12.5195-10.752Q12.5195-11.1328 12.29-11.3623Q12.0605-11.5918 11.6895-11.5918Q11.3379-11.5918 11.1133-11.3574Q10.8887-11.123 10.8887-10.752L10.8887-7.88086L8.01758-7.88086Q7.63672-7.88086 7.40723-7.65137Q7.17773-7.42188 7.17773-7.05078Z"/>
  </g>
  <g transform="matrix(1 0 0 1 305.646 1933)">
   <path d="M14.9707 5.66406Q17.0605 5.66406 18.96 5.01465Q20.8594 4.36523 22.4512 3.19336Q24.043 2.02148 25.2197 0.429688Q26.3965-1.16211 27.0459-3.06641Q27.6953-4.9707 27.6953-7.05078Q27.6953-9.14062 27.0459-11.04Q26.3965-12.9395 25.2197-14.5312Q24.043-16.123 22.4512-17.2998Q20.8594-18.4766 18.9551-19.126Q17.0508-19.7754 14.9609-19.7754Q12.8711-19.7754 10.9717-19.126Q9.07227-18.4766 7.48535-17.2998Q5.89844-16.123 4.72168-14.5312Q3.54492-12.9395 2.90039-11.04Q2.25586-9.14062 2.25586-7.05078Q2.25586-4.9707 2.90527-3.06641Q3.55469-1.16211 4.72656 0.429688Q5.89844 2.02148 7.49023 3.19336Q9.08203 4.36523 10.9814 5.01465Q12.8809 5.66406 14.9707 5.66406ZM14.9707 3.84766Q13.1641 3.84766 11.5283 3.2959Q9.89258 2.74414 8.53516 1.74805Q7.17773 0.751953 6.17676-0.610352Q5.17578-1.97266 4.62891-3.6084Q4.08203-5.24414 4.08203-7.05078Q4.08203-8.86719 4.62891-10.5029Q5.17578-12.1387 6.17188-13.501Q7.16797-14.8633 8.52539-15.8594Q9.88281-16.8555 11.5186-17.4023Q13.1543-17.9492 14.9609-17.9492Q16.7773-17.9492 18.4131-17.4023Q20.0488-16.8555 21.4111-15.8594Q22.7734-14.8633 23.7695-13.501Q24.7656-12.1387 25.3174-10.5029Q25.8691-8.86719 25.8691-7.05078Q25.8789-5.24414 25.332-3.6084Q24.7852-1.97266 23.7842-0.610352Q22.7832 0.751953 21.4209 1.74805Q20.0586 2.74414 18.4229 3.2959Q16.7871 3.84766 14.9707 3.84766ZM9.19922-7.05078Q9.19922-6.66992 9.45801-6.4209Q9.7168-6.17188 10.1172-6.17188L14.0625-6.17188L14.0625-2.2168Q14.0625-1.81641 14.3115-1.55762Q14.5605-1.29883 14.9512-1.29883Q15.3516-1.29883 15.6104-1.55273Q15.8691-1.80664 15.8691-2.2168L15.8691-6.17188L19.8242-6.17188Q20.2246-6.17188 20.4785-6.4209Q20.7324-6.66992 20.7324-7.05078Q20.7324-7.46094 20.4785-7.71484Q20.2246-7.96875 19.8242-7.96875L15.8691-7.96875L15.8691-11.9141Q15.8691-12.3242 15.6104-12.583Q15.3516-12.8418 14.9512-12.8418Q14.5605-12.8418 14.3115-12.583Q14.0625-12.3242 14.0625-11.9141L14.0625-7.96875L10.1172-7.96875Q9.70703-7.96875 9.45312-7.71484Q9.19922-7.46094 9.19922-7.05078Z"/>
  </g>
  <text style="stroke:none;fill:black;font-family:sans-serif;font-size:13;font-weight:bold;" transform="matrix(1 0 0 1 263 1953)">Design Variations</text>
  <text style="stroke:none;fill:black;font-family:sans-serif;font-size:13;" transform="matrix(1 0 0 1 263 1971)">Symbols are supported in up to nine weights and three scales.</text>
  <text style="stroke:none;fill:black;font-family:sans-serif;font-size:13;" transform="matrix(1 0 0 1 263 1989)">For optimal layout with text and other symbols, vertically align</text>
  <text style="stroke:none;fill:black;font-family:sans-serif;font-size:13;" transform="matrix(1 0 0 1 263 2007)">symbols with the adjacent text.</text>
  <line style="fill:none;stroke:#00AEEF;stroke-width:0.5;opacity:1.0;" x1="776" x2="776" y1="1919" y2="1933"/>
  <g transform="matrix(1 0 0 1 776 1933)">
   <path d="M3.31055 0.15625Q3.70117 0.15625 3.91602-0.00976562Q4.13086-0.175781 4.26758-0.585938L5.52734-4.0332L11.2891-4.0332L12.5488-0.585938Q12.6855-0.175781 12.9004-0.00976562Q13.1152 0.15625 13.4961 0.15625Q13.8867 0.15625 14.1162-0.0585938Q14.3457-0.273438 14.3457-0.644531Q14.3457-0.869141 14.2383-1.17188L9.6582-13.3691Q9.48242-13.8184 9.17969-14.043Q8.87695-14.2676 8.4082-14.2676Q7.5-14.2676 7.17773-13.3789L2.59766-1.16211Q2.49023-0.859375 2.49023-0.634766Q2.49023-0.263672 2.70996-0.0537109Q2.92969 0.15625 3.31055 0.15625ZM6.00586-5.51758L8.37891-12.0898L8.42773-12.0898L10.8008-5.51758Z"/>
  </g>
  <line style="fill:none;stroke:#00AEEF;stroke-width:0.5;opacity:1.0;" x1="793.197" x2="793.197" y1="1919" y2="1933"/>
  <text style="stroke:none;fill:black;font-family:sans-serif;font-size:13;font-weight:bold;" transform="matrix(1 0 0 1 776 1953)">Margins</text>
  <text style="stroke:none;fill:black;font-family:sans-serif;font-size:13;" transform="matrix(1 0 0 1 776 1971)">Leading and trailing margins on the left and right side of each symbol</text>
  <text style="stroke:none;fill:black;font-family:sans-serif;font-size:13;" transform="matrix(1 0 0 1 776 1989)">can be adjusted by modifying the x-location of the margin guidelines.</text>
  <text style="stroke:none;fill:black;font-family:sans-serif;font-size:13;" transform="matrix(1 0 0 1 776 2007)">Modifications are automatically applied proportionally to all</text>
  <text style="stroke:none;fill:black;font-family:sans-serif;font-size:13;" transform="matrix(1 0 0 1 776 2025)">scales and weights.</text>
  <g transform="matrix(1 0 0 1 1289 1933)">
   <path d="M2.8418 1.86523L4.54102 3.57422Q5.18555 4.22852 5.90332 4.17969Q6.62109 4.13086 7.31445 3.35938L18.0078-8.42773L17.041-9.4043L6.42578 2.27539Q6.16211 2.57812 5.89355 2.61719Q5.625 2.65625 5.27344 2.30469L4.10156 1.14258Q3.75 0.791016 3.79395 0.522461Q3.83789 0.253906 4.14062-0.0195312L15.6152-10.8203L14.6387-11.7871L3.04688-0.898438Q2.30469-0.214844 2.25098 0.498047Q2.19727 1.21094 2.8418 1.86523ZM9.25781-16.3281Q8.94531-16.0254 8.90625-15.6348Q8.86719-15.2441 9.04297-14.9512Q9.21875-14.6777 9.55566-14.541Q9.89258-14.4043 10.3809-14.5215Q11.4746-14.7754 12.5977-14.7314Q13.7207-14.6875 14.7949-13.9844L14.209-12.5293Q13.9551-11.9043 14.0674-11.4404Q14.1797-10.9766 14.5801-10.5664L16.875-8.25195Q17.2363-7.88086 17.5781-7.82227Q17.9199-7.76367 18.3398-7.8418L19.4043-8.03711L20.0684-7.36328L20.0293-6.80664Q20-6.43555 20.1221-6.12305Q20.2441-5.81055 20.6055-5.44922L21.3672-4.70703Q21.7285-4.3457 22.1533-4.33105Q22.5781-4.31641 22.9297-4.66797L25.8398-7.58789Q26.1914-7.93945 26.1816-8.35449Q26.1719-8.76953 25.8105-9.13086L25.0391-9.89258Q24.6875-10.2539 24.3799-10.3857Q24.0723-10.5176 23.7109-10.4883L23.1348-10.4395L22.4902-11.0742L22.7344-12.1973Q22.832-12.6172 22.6953-12.9834Q22.5586-13.3496 22.1191-13.7891L19.9219-15.9766Q18.6719-17.2168 17.2607-17.8369Q15.8496-18.457 14.4189-18.4814Q12.9883-18.5059 11.665-17.959Q10.3418-17.4121 9.25781-16.3281ZM10.752-15.957Q11.6602-16.6211 12.7002-16.9043Q13.7402-17.1875 14.8047-17.085Q15.8691-16.9824 16.8701-16.5137Q17.8711-16.0449 18.7012-15.2051L21.1328-12.793Q21.3086-12.6172 21.3525-12.4512Q21.3965-12.2852 21.3379-12.0312L21.0156-10.5469L22.5195-9.0625L23.5059-9.12109Q23.6914-9.13086 23.7891-9.09668Q23.8867-9.0625 24.0332-8.91602L24.6094-8.33984L22.168-5.89844L21.5918-6.47461Q21.4453-6.62109 21.4062-6.71875Q21.3672-6.81641 21.377-7.01172L21.4453-7.98828L19.9512-9.47266L18.4277-9.21875Q18.1836-9.16992 18.042-9.2041Q17.9004-9.23828 17.7148-9.41406L15.7129-11.416Q15.5176-11.5918 15.4932-11.7529Q15.4688-11.9141 15.5859-12.1875L16.4648-14.2773Q15.293-15.3711 13.8281-15.791Q12.3633-16.2109 10.8398-15.7617Q10.7227-15.7324 10.6885-15.8057Q10.6543-15.8789 10.752-15.957Z"/>
  </g>
  <text style="stroke:none;fill:black;font-family:sans-serif;font-size:13;font-weight:bold;" transform="matrix(1 0 0 1 1289 1953)">Exporting</text>
  <text style="stroke:none;fill:black;font-family:sans-serif;font-size:13;" transform="matrix(1 0 0 1 1289 1971)">Symbols should be outlined when exporting to ensure the</text>
  <text style="stroke:none;fill:black;font-family:sans-serif;font-size:13;" transform="matrix(1 0 0 1 1289 1989)">design is preserved when submitting to Xcode.</text>
  <text id="template-version" style="stroke:none;fill:black;font-family:sans-serif;font-size:13;text-anchor:end;" transform="matrix(1 0 0 1 3036 1933)">Template v.3.0</text>
  <text style="stroke:none;fill:black;font-family:sans-serif;font-size:13;text-anchor:end;" transform="matrix(1 0 0 1 3036 1951)">Requires Xcode 13 or greater</text>
  <text id="descriptive-name" style="stroke:none;fill:black;font-family:sans-serif;font-size:13;text-anchor:end;" transform="matrix(1 0 0 1 3036 1969)">Generated from alarm.fill</text>
  <text style="stroke:none;fill:black;font-family:sans-serif;font-size:13;text-anchor:end;" transform="matrix(1 0 0 1 3036 1987)">Typeset at 100 points</text>
  <text style="stroke:none;fill:black;font-family:sans-serif;font-size:13;" transform="matrix(1 0 0 1 263 726)">Small</text>
  <text style="stroke:none;fill:black;font-family:sans-serif;font-size:13;" transform="matrix(1 0 0 1 263 1156)">Medium</text>
  <text style="stroke:none;fill:black;font-family:sans-serif;font-size:13;" transform="matrix(1 0 0 1 263 1586)">Large</text>
 </g>
 <g id="Guides">
  <g id="H-reference" style="fill:#27AAE1;stroke:none;" transform="matrix(1 0 0 1 339 696)">
   <path d="M0.993347 0L3.6377 0L29.3282-67.1326L30.0301-67.1326L30.0301-70.459L28.1227-70.459ZM11.6882-24.4797L46.9818-24.4797L46.2311-26.7288L12.4382-26.7288ZM55.1193 0L57.7637 0L30.6381-70.459L29.4327-70.459L29.4327-67.1326Z"/>
  </g>
  <line id="Baseline-S" style="fill:none;stroke:#27AAE1;opacity:1;stroke-width:0.5;" x1="263" x2="3036" y1="696" y2="696"/>
  <line id="Capline-S" style="fill:none;stroke:#27AAE1;opacity:1;stroke-width:0.5;" x1="263" x2="3036" y1="625.541" y2="625.541"/>
  <g id="H-reference" style="fill:#27AAE1;stroke:none;" transform="matrix(1 0 0 1 339 1126)">
   <path d="M0.993347 0L3.6377 0L29.3282-67.1326L30.0301-67.1326L30.0301-70.459L28.1227-70.459ZM11.6882-24.4797L46.9818-24.4797L46.2311-26.7288L12.4382-26.7288ZM55.1193 0L57.7637 0L30.6381-70.459L29.4327-70.459L29.4327-67.1326Z"/>
  </g>
  <line id="Baseline-M" style="fill:none;stroke:#27AAE1;opacity:1;stroke-width:0.5;" x1="263" x2="3036" y1="1126" y2="1126"/>
  <line id="Capline-M" style="fill:none;stroke:#27AAE1;opacity:1;stroke-width:0.5;" x1="263" x2="3036" y1="1055.54" y2="1055.54"/>
  <g id="H-reference" style="fill:#27AAE1;stroke:none;" transform="matrix(1 0 0 1 339 1556)">
   <path d="M0.993347 0L3.6377 0L29.3282-67.1326L30.0301-67.1326L30.0301-70.459L28.1227-70.459ZM11.6882-24.4797L46.9818-24.4797L46.2311-26.7288L12.4382-26.7288ZM55.1193 0L57.7637 0L30.6381-70.459L29.4327-70.459L29.4327-67.1326Z"/>
  </g>
  <line id="Baseline-L" style="fill:none;stroke:#27AAE1;opacity:1;stroke-width:0.5;" x1="263" x2="3036" y1="1556" y2="1556"/>
  <line id="Capline-L" style="fill:none;stroke:#27AAE1;opacity:1;stroke-width:0.5;" x1="263" x2="3036" y1="1485.54" y2="1485.54"/>
  <line id="left-margin-Ultralight-S" style="fill:none;stroke:#00AEEF;stroke-width:0.5;opacity:1.0;" x1="517.442" x2="517.442" y1="600.785" y2="720.121"/>
  <line id="right-margin-Ultralight-S" style="fill:none;stroke:#00AEEF;stroke-width:0.5;opacity:1.0;" x1="601.98" x2="601.98" y1="600.785" y2="720.121"/>
  <line id="left-margin-Regular-S" style="fill:none;stroke:#00AEEF;stroke-width:0.5;opacity:1.0;" x1="1406.17" x2="1406.17" y1="600.785" y2="720.121"/>
  <line id="right-margin-Regular-S" style="fill:none;stroke:#00AEEF;stroke-width:0.5;opacity:1.0;" x1="1493.52" x2="1493.52" y1="600.785" y2="720.121"/>
  <line id="left-margin-Black-S" style="fill:none;stroke:#00AEEF;stroke-width:0.5;opacity:1.0;" x1="2888.48" x2="2888.48" y1="600.785" y2="720.121"/>
  <line id="right-margin-Black-S" style="fill:none;stroke:#00AEEF;stroke-width:0.5;opacity:1.0;" x1="2978.32" x2="2978.32" y1="600.785" y2="720.121"/>
 </g>
 <g id="Symbols">
  <g id="Black-S" transform="matrix(1 0 0 1 2888.48 696)">
   <path d="M44.9219 2.53906Q52.832 2.53906 59.7168-0.415039Q66.6016-3.36914 71.8506-8.61816Q77.0996-13.8672 80.0537-20.752Q83.0078-27.6367 83.0078-35.5469Q83.0078-43.457 80.0537-50.3418Q77.0996-57.2266 71.8506-62.4756Q66.6016-67.7246 59.7168-70.6787Q52.832-73.6328 44.9219-73.6328Q37.0117-73.6328 30.127-70.6787Q23.2422-67.7246 17.9932-62.4756Q12.7441-57.2266 9.79004-50.3418Q6.83594-43.457 6.83594-35.5469Q6.83594-27.6367 9.79004-20.752Q12.7441-13.8672 17.9932-8.61816Q23.2422-3.36914 30.127-0.415039Q37.0117 2.53906 44.9219 2.53906ZM31.8848-28.4668Q30.0293-28.4668 28.7354-29.7607Q27.4414-31.0547 27.4414-32.9102Q27.4414-34.7656 28.7354-36.0352Q30.0293-37.3047 31.8848-37.3047L40.4785-37.3047L40.4785-50.9277Q40.4785-52.7832 41.7725-54.0527Q43.0664-55.3223 44.9219-55.3223Q46.7773-55.3223 48.0713-54.0527Q49.3652-52.7832 49.3652-50.9277L49.3652-32.9102Q49.3652-31.0547 48.0713-29.7607Q46.7773-28.4668 44.9219-28.4668ZM10.5469-63.623Q11.0352-63.623 11.4014-63.8184Q11.7676-64.0137 12.2559-64.3555L29.0527-75.3418Q30.127-76.0742 30.127-77.2949Q30.127-78.9062 28.7109-79.8828Q26.9043-81.1523 24.8047-81.8359Q22.7051-82.5195 20.2148-82.5195Q16.6992-82.5195 13.7207-80.9082Q10.7422-79.2969 8.95996-76.5625Q7.17773-73.8281 7.17773-70.4102Q7.17773-68.8477 7.42188-67.627Q7.66602-66.4062 8.05664-65.4297Q8.83789-63.623 10.5469-63.623ZM79.3457-63.623Q81.0547-63.623 81.8359-65.4297Q82.2266-66.4062 82.4463-67.627Q82.666-68.8477 82.666-70.4102Q82.666-73.8281 80.8838-76.5625Q79.1016-79.2969 76.1475-80.9082Q73.1934-82.5195 69.6289-82.5195Q67.1387-82.5195 65.0635-81.8359Q62.9883-81.1523 61.1328-79.8828Q59.7168-78.9062 59.7168-77.2949Q59.7168-76.0742 60.8398-75.3418L77.6367-64.3555Q78.125-64.0137 78.4912-63.8184Q78.8574-63.623 79.3457-63.623ZM11.0352 4.15039Q12.5977 5.66406 14.6973 5.59082Q16.7969 5.51758 18.3105 3.95508L27.5879-5.22461L20.5078-12.2559L11.0352-2.68555Q9.57031-1.2207 9.57031 0.756836Q9.57031 2.73438 11.0352 4.15039ZM78.8086 4.15039Q80.2734 2.73438 80.2734 0.756836Q80.2734-1.2207 78.8086-2.68555L69.3359-12.2559L62.2559-5.22461L71.5332 3.95508Q73.0957 5.46875 75.1709 5.56641Q77.2461 5.66406 78.8086 4.15039Z"/>
  </g>
  <g id="Regular-S" transform="matrix(1 0 0 1 1406.17 696)">
   <path d="M43.6523 1.36719Q51.3184 1.36719 57.9834-1.48926Q64.6484-4.3457 69.7266-9.39941Q74.8047-14.4531 77.6611-21.1182Q80.5176-27.7832 80.5176-35.4492Q80.5176-43.0664 77.6611-49.7559Q74.8047-56.4453 69.7266-61.499Q64.6484-66.5527 57.9834-69.4092Q51.3184-72.2656 43.6523-72.2656Q36.0352-72.2656 29.3457-69.4092Q22.6562-66.5527 17.6025-61.499Q12.5488-56.4453 9.69238-49.7559Q6.83594-43.0664 6.83594-35.4492Q6.83594-27.7832 9.69238-21.1182Q12.5488-14.4531 17.6025-9.39941Q22.6562-4.3457 29.3457-1.48926Q36.0352 1.36719 43.6523 1.36719ZM27.002-30.9082Q25.7324-30.9082 24.8535-31.7871Q23.9746-32.666 23.9746-33.9355Q23.9746-35.2051 24.8535-36.0596Q25.7324-36.9141 27.002-36.9141L40.625-36.9141L40.625-56.2012Q40.625-57.4707 41.4795-58.3496Q42.334-59.2285 43.6035-59.2285Q44.873-59.2285 45.752-58.3496Q46.6309-57.4707 46.6309-56.2012L46.6309-33.9355Q46.6309-32.666 45.752-31.7871Q44.873-30.9082 43.6035-30.9082ZM11.4746-61.9629Q11.8652-61.9629 12.2314-62.085Q12.5977-62.207 12.9883-62.5L26.123-72.5586Q27.0508-73.291 27.0508-74.2676Q27.0508-75.4395 26.0254-76.3672Q24.9512-77.3926 23.1201-77.9297Q21.2891-78.4668 19.5801-78.4668Q16.5527-78.4668 14.0381-76.9775Q11.5234-75.4883 10.0342-72.9736Q8.54492-70.459 8.54492-67.4316Q8.54492-66.3086 8.74023-65.2588Q8.93555-64.209 9.22852-63.5254Q9.91211-61.9629 11.4746-61.9629ZM75.8789-61.9629Q77.2949-61.9629 78.125-63.5254Q78.418-64.1602 78.6133-65.2344Q78.8086-66.3086 78.8086-67.4316Q78.8086-70.459 77.3193-72.9736Q75.8301-75.4883 73.3154-76.9775Q70.8008-78.4668 67.7246-78.4668Q66.0156-78.4668 64.209-77.9297Q62.4023-77.3926 61.2793-76.3672Q60.2539-75.4395 60.2539-74.2676Q60.2539-73.291 61.2305-72.5586L74.3164-62.5Q74.7559-62.207 75.0977-62.085Q75.4395-61.9629 75.8789-61.9629ZM11.1328 0.292969Q12.1094 1.26953 13.5254 1.26953Q14.9414 1.26953 15.9668 0.244141L23.2422-7.03125L18.5059-11.7676L11.1816-4.44336Q10.1562-3.4668 10.1562-2.0752Q10.1562-0.683594 11.1328 0.292969ZM76.2207 0.292969Q77.1484-0.683594 77.1729-2.0752Q77.1973-3.4668 76.1719-4.44336L68.7988-11.7676L64.0625-7.03125L71.3867 0.244141Q72.4121 1.26953 73.8281 1.26953Q75.2441 1.26953 76.2207 0.292969Z"/>
  </g>
  <g id="Ultralight-S" transform="matrix(1 0 0 1 517.442 696)">
   <path d="M42.2447 0.0953674Q49.5926 0.0953674 56.0081-2.66991Q62.4237-5.43518 67.2974-10.3073Q72.171-15.1794 74.9367-21.595Q77.7023-28.0106 77.7023-35.3127Q77.7023-42.6125 74.9367-49.0295Q72.171-55.4466 67.2974-60.3184Q62.4237-65.1901 56.0081-67.9558Q49.5926-70.7214 42.2447-70.7214Q34.9457-70.7214 28.5286-67.9558Q22.1115-65.1901 17.2394-60.3184Q12.3672-55.4466 9.60159-49.0295Q6.83594-42.6125 6.83594-35.3127Q6.83594-28.0106 9.60159-21.595Q12.3672-15.1794 17.2394-10.3073Q22.1115-5.43518 28.5286-2.66991Q34.9457 0.0953674 42.2447 0.0953674ZM21.5981-32.4524Q21.1464-32.4524 20.8351-32.7637Q20.5238-33.075 20.5238-33.5724Q20.5238-33.979 20.8351-34.2888Q21.1464-34.5985 21.5981-34.5985L41.2155-34.5985L41.2155-60.6514Q41.2155-61.1038 41.5249-61.3922Q41.8343-61.6806 42.2409-61.6806Q42.7391-61.6806 43.0504-61.3922Q43.3617-61.1038 43.3617-60.6514L43.3617-33.5724Q43.3617-33.075 43.0504-32.7637Q42.7391-32.4524 42.2409-32.4524ZM14.3806-63.0524Q14.817-63.0524 15.115-63.1519Q15.4129-63.2515 15.8035-63.4987L27.3949-71.4233Q28.3226-72.11 28.3226-72.9958Q28.3226-74.0318 27.2514-74.9596Q26.1772-75.8942 24.6639-76.3176Q23.1506-76.741 21.4874-76.741Q18.7325-76.741 16.581-75.5016Q14.4295-74.2622 13.1901-72.1561Q11.9507-70.05 11.9507-67.4316Q11.9507-66.7175 12.0552-65.9172Q12.1597-65.1169 12.4527-64.4791Q13.0455-63.0524 14.3806-63.0524ZM70.1118-63.0524Q71.4828-63.0524 72.0856-64.4791Q72.3328-65.1138 72.4602-65.9157Q72.5876-66.7175 72.5876-67.4316Q72.5876-70.05 71.3482-72.1561Q70.1088-74.2622 67.9573-75.5016Q65.8058-76.741 63.047-76.741Q61.3838-76.741 59.8724-76.3176Q58.3611-75.8942 57.283-74.9596Q56.2126-74.0318 56.2126-72.9958Q56.2126-72.11 57.1434-71.4233L68.6859-63.4987Q69.1254-63.2515 69.4218-63.1519Q69.7182-63.0524 70.1118-63.0524ZM12.722-0.842285Q13.0173-0.501251 13.4346-0.501251Q13.8519-0.501251 14.196-0.845337L21.0175-7.71255L19.6411-9.13391L12.7258-2.26364Q12.4268-1.96838 12.4039-1.55296Q12.381-1.13754 12.722-0.842285ZM71.8163-0.842285Q72.1535-1.13754 72.1325-1.55296Q72.1115-1.96838 71.8124-2.26364L64.8933-9.13391L63.5178-7.71255L70.2972-0.845337Q70.6413-0.501251 71.0583-0.501251Q71.4752-0.501251 71.8163-0.842285Z"/>
  </g>
 </g>
</svg>
